<svg width="141" height="40" fill="none" xmlns="http://www.w3.org/2000/svg"><path d="M55.045 30.607V9.393h10.934c2.62 0 4.627.49 6.024 1.473 1.397.96 2.095 2.357 2.095 4.19 0 1.18-.272 2.118-.818 2.816-.546.677-1.31 1.19-2.292 1.539-.982.327-2.15.534-3.503.622l.131-.197c.982.022 1.91.11 2.783.262.873.131 1.637.371 2.292.72.676.35 1.2.84 1.571 1.474.393.61.59 1.407.59 2.39 0 1.31-.328 2.39-.983 3.24-.655.852-1.571 1.507-2.75 1.965-1.156.436-2.499.677-4.027.72H55.045zM58.81 27.4h7.759c1.418 0 2.51-.24 3.273-.72.786-.502 1.179-1.277 1.179-2.325 0-.807-.24-1.397-.72-1.768-.459-.37-1.07-.61-1.834-.72a16.88 16.88 0 00-2.39-.164H58.81V27.4zm0-8.84h6.94c1.419 0 2.51-.24 3.274-.72.786-.502 1.178-1.276 1.178-2.324 0-1.048-.392-1.79-1.178-2.226-.764-.459-1.768-.688-3.012-.688H58.81v5.958zm20.58-9.167h3.797v21.214h-3.798V9.393zm29.286 17.286l-1.178.458V9.393h3.798v21.214h-3.798L91.489 13.42l1.146-.459v17.646H88.87V9.393h3.765l16.041 17.286zM127.953 31c-2.51 0-4.703-.447-6.58-1.342-1.855-.895-3.296-2.161-4.321-3.798-1.004-1.637-1.506-3.59-1.506-5.86 0-2.27.502-4.223 1.506-5.86 1.025-1.659 2.466-2.925 4.321-3.798 1.877-.895 4.07-1.342 6.58-1.342 2.554 0 4.747.447 6.581 1.342 1.855.873 3.295 2.14 4.321 3.798 1.026 1.637 1.539 3.59 1.539 5.86 0 2.27-.513 4.223-1.539 5.86-1.026 1.637-2.466 2.903-4.321 3.798-1.834.895-4.027 1.342-6.581 1.342zm0-3.34c1.659 0 3.121-.272 4.387-.818 1.288-.567 2.292-1.418 3.012-2.553.742-1.135 1.113-2.565 1.113-4.289 0-1.702-.371-3.121-1.113-4.256-.72-1.135-1.724-1.986-3.012-2.553-1.266-.568-2.728-.852-4.387-.852-1.637 0-3.11.284-4.419.851-1.288.568-2.303 1.42-3.045 2.554-.742 1.135-1.113 2.554-1.113 4.256 0 1.724.371 3.154 1.113 4.289.742 1.135 1.757 1.986 3.045 2.553 1.309.546 2.782.819 4.419.819zM20 10h-8.333v8.333H20V10zM8.333 10H0v8.333h8.333V10zm0 8.333H0v8.334h8.333v-8.334zM30 20h-8.333v8.333H30V20zm0 11.667h-8.333V40H30v-8.333zm-8.333 0h-8.334V40h8.334v-8.333zM10 8.333V0C4.467 0 0 4.467 0 10h8.333A1.68 1.68 0 0110 8.333zm10 10h-8.333c0 5.534 4.466 10 10 10V20A1.664 1.664 0 0120 18.333zm-10-10V0c5.533 0 10 4.467 10 10h-8.333A1.68 1.68 0 0010 8.333zM31.667 30H40c0-5.533-4.467-10-10-10v8.333A1.68 1.68 0 0131.667 30zm0 0H40c0 5.533-4.467 10-10 10v-8.333c.911 0 1.667-.734 1.667-1.667zM9 32H0v8h9v-8z" fill="#000"/></svg>