<svg width="15" height="15" viewBox="0 0 15 15" fill="none" xmlns="http://www.w3.org/2000/svg">
<g id="arrow">
<path id="Stroke 1" d="M3.19345 11.8064C3.01446 11.6274 2.99954 11.3464 3.1487 11.1505L3.19345 11.0993L10.2644 4.02828C10.4597 3.83302 10.7763 3.83302 10.9715 4.02828C11.1505 4.20727 11.1654 4.4882 11.0163 4.68418L10.9715 4.73538L3.90055 11.8064C3.70529 12.0016 3.38871 12.0016 3.19345 11.8064Z" fill="black"/>
<path id="Stroke 3" d="M4.92727 4.89377C4.65113 4.89437 4.4268 4.67099 4.4262 4.39485C4.42566 4.14382 4.61022 3.9356 4.85124 3.89937L4.92512 3.89379L10.6168 3.88153C10.8686 3.88099 11.0771 4.06661 11.1126 4.30845L11.1179 4.38256L11.1061 10.0747C11.1055 10.3508 10.8812 10.5742 10.605 10.5737C10.354 10.5731 10.1466 10.3877 10.1114 10.1465L10.1061 10.0726L10.1165 4.88257L4.92727 4.89377Z" fill="black"/>
</g>
</svg>
