<svg aria-hidden="true" style="position:absolute;width:0;height:0;overflow:hidden" xmlns="http://www.w3.org/2000/svg"><defs><symbol id="icon-decor1" viewBox="0 0 32 32"><path d="m16 16 8-8 8 8H16zM16 16l8 8-8 8V16z"/><path d="m8 24 8-8 8 8H8z"/><path d="m16 16-8 8-8-8h16zM16 16 8 8l8-8v16z"/><path d="m24 8-8 8-8-8h16z"/></symbol><symbol id="icon-decor2" viewBox="0 0 32 32"><path d="M21.333 0H10.666c0 5.884-4.782 10.667-10.667 10.667v10.667c11.787 0 21.333-9.547 21.333-21.333z"/><path d="M32 10.667v10.667c-5.884 0-10.667 4.782-10.667 10.667H10.666c0-11.787 9.547-21.333 21.333-21.333z"/></symbol><symbol id="icon-hero-arrows" viewBox="0 0 32 32"><path d="M.445 1.676a1.52 1.52 0 0 1 1.98-.147l.171.147L15.711 14.79 28.826 1.676a1.52 1.52 0 0 1 1.98-.147l.171.147c.54.54.589 1.384.147 1.98l-.147.171-14.19 14.19a1.52 1.52 0 0 1-1.98.147l-.171-.147L.446 3.827a1.52 1.52 0 0 1 0-2.15z"/><path d="M.445 13.984a1.52 1.52 0 0 1 1.98-.147l.171.147 13.115 13.114 13.115-13.114a1.52 1.52 0 0 1 1.98-.147l.171.147c.54.54.589 1.384.147 1.98l-.147.17-14.19 14.19a1.52 1.52 0 0 1-1.98.147l-.171-.147-14.19-14.19a1.52 1.52 0 0 1 0-2.15z"/></symbol><symbol id="icon-instagram" viewBox="0 0 32 32"><path fill="none" stroke="#000" style="stroke:var(--color1, #000)" stroke-width="1.067" d="M31.467 16c0 8.542-6.925 15.467-15.467 15.467S.533 24.542.533 16C.533 7.458 7.458.533 16 .533S31.467 7.458 31.467 16z"/><path d="M16 14.32a1.68 1.68 0 1 0 0 3.359 1.68 1.68 0 0 0 0-3.359zm0-1.12a2.8 2.8 0 1 1 0 5.6 2.8 2.8 0 0 1 0-5.6zm3.64-.14a.7.7 0 1 1-1.4 0 .7.7 0 0 1 1.4 0zM16 11.52c-1.386 0-1.612.004-2.256.032-.439.021-.734.08-1.007.186a1.622 1.622 0 0 0-.605.394c-.175.169-.31.376-.394.605-.106.274-.165.568-.185 1.007-.029.618-.032.834-.032 2.256 0 1.385.004 1.612.032 2.256.021.439.08.734.185 1.006.095.244.207.419.393.605.189.188.364.301.605.394.277.107.571.166 1.008.186.618.029.834.033 2.256.033 1.385 0 1.612-.004 2.256-.033.438-.021.733-.079 1.006-.185.242-.095.419-.207.605-.393.189-.189.301-.364.394-.605.106-.276.166-.571.186-1.008.029-.618.033-.834.033-2.256 0-1.386-.004-1.612-.033-2.256-.021-.438-.079-.734-.186-1.007a1.63 1.63 0 0 0-.394-.605 1.615 1.615 0 0 0-.605-.394c-.274-.106-.569-.165-1.007-.185-.618-.029-.834-.032-2.256-.032zm0-1.12c1.521 0 1.711.006 2.308.034s1.002.122 1.36.26c.37.142.681.335.992.646.285.28.505.619.646.992.138.357.232.763.26 1.36.026.597.034.787.034 2.308s-.006 1.711-.034 2.308c-.028.596-.122 1.002-.26 1.36-.14.374-.361.713-.646.992-.28.285-.619.505-.992.646-.357.138-.763.232-1.36.26-.597.026-.787.034-2.308.034s-1.711-.006-2.308-.034c-.596-.028-1.002-.122-1.36-.26a2.727 2.727 0 0 1-.992-.646 2.757 2.757 0 0 1-.646-.992c-.139-.357-.232-.763-.26-1.36-.026-.597-.034-.787-.034-2.308s.006-1.711.034-2.308c.028-.597.122-1.002.26-1.36.14-.374.361-.713.646-.992.28-.285.619-.505.992-.646.357-.139.763-.232 1.36-.26.597-.026.787-.034 2.308-.034z"/></symbol><symbol id="icon-linkedin" viewBox="0 0 32 32"><path fill="none" stroke="#000" style="stroke:var(--color1, #000)" stroke-width="1.067" d="M31.467 16c0 8.542-6.925 15.467-15.467 15.467S.533 24.542.533 16C.533 7.458 7.458.533 16 .533S31.467 7.458 31.467 16z"/><path d="M16.251 13.995c.545-.557 1.255-.921 2.08-.921a3.267 3.267 0 0 1 3.268 3.268v4.457H20.41v-4.457a2.08 2.08 0 1 0-4.16 0v4.457h-1.189V13.37h1.189v.624zm-4.16-1.812a.892.892 0 1 1 0-1.783.892.892 0 0 1 0 1.783zm-.594 1.188h1.189V20.8h-1.189v-7.429z"/></symbol><symbol id="icon-twitter" viewBox="0 0 32 32"><path fill="none" stroke="#000" style="stroke:var(--color1, #000)" stroke-width=".8" d="M31.6 16c0 8.616-6.984 15.6-15.6 15.6S.4 24.616.4 16 7.384.4 16 .4 31.6 7.384 31.6 16z"/><path d="M18.287 11.65a1.812 1.812 0 0 0-1.812 1.779l-.018.984a.37.37 0 0 1-.131.278.379.379 0 0 1-.294.087l-.975-.132c-1.283-.175-2.513-.766-3.692-1.749-.374 2.068.356 3.5 2.114 4.606l1.091.686a.37.37 0 0 1 .175.304.374.374 0 0 1-.154.316l-.995.727c.592.037 1.153.011 1.619-.082 2.948-.589 4.907-2.806 4.907-6.465 0-.299-.632-1.338-1.837-1.338zm-3.061 1.756a3.066 3.066 0 0 1 1.923-2.787 3.059 3.059 0 0 1 3.315.69c.444-.003.822.109 1.667-.403-.209 1.025-.312 1.469-.758 2.081 0 4.774-2.934 7.096-5.912 7.69-2.042.407-5.01-.262-5.861-1.15.434-.034 2.195-.223 3.214-.968-.862-.568-4.291-2.586-2.037-8.011 1.058 1.235 2.13 2.076 3.217 2.522.723.297.901.29 1.233.336l-.001-.001z"/></symbol><symbol id="icon-arrow-btn" viewBox="0 0 32 32"><path d="m19.414 27.414 10-10a2 2 0 0 0 0-2.828l-10-10a2 2 0 1 0-2.828 2.828L23.172 14H4a2 2 0 1 0 0 4h19.172l-6.586 6.586c-.39.39-.586.902-.586 1.414s.195 1.024.586 1.414a2 2 0 0 0 2.828 0z"/></symbol></defs></svg>