<svg aria-hidden="true" style="position:absolute;width:0;height:0;overflow:hidden" xmlns="http://www.w3.org/2000/svg"><defs><symbol id="icon-feature-icon1" viewBox="0 0 32 32"><path stroke-miterlimit="10" stroke-width=".444" d="m22.447 31.556 9.109-9.109V9.553L22.447.444H9.553L.444 9.553v12.894l9.109 9.109h12.894z"/><path stroke-miterlimit="10" stroke-width=".444" d="m20.304 26.37 6.067-6.067v-8.59l-6.067-6.084h-8.607L5.63 11.713v8.59l6.067 6.067h8.607z"/><path stroke-miterlimit="10" stroke-width=".444" d="m18.143 21.185 3.042-3.042v-4.286l-3.042-3.042h-4.286l-3.042 3.042v4.286l3.042 3.042h4.286z"/></symbol><symbol id="icon-feature-icon2" viewBox="0 0 28 32"><path stroke-miterlimit="10" stroke-width=".386" d="m13.88 8.181 6.756 3.897-6.756 3.897-6.756-3.897 6.756-3.897zM13.88 15.976l-6.756-3.897v7.795l6.756 3.897v-7.795zM7.124 12.078.386 8.181v7.795l6.738 3.897v-7.795z"/><path stroke-miterlimit="10" stroke-width=".386" d="m13.88 23.77-6.756-3.897v7.795l6.756 3.897V23.77zM7.124 19.873.386 15.976v7.795l6.738 3.897v-7.795zM7.124 4.283 13.88 8.18l-6.756 3.898L.386 8.18l6.738-3.897z"/><path stroke-miterlimit="10" stroke-width=".386" d="m20.635 4.283 6.738 3.897-6.738 3.898-6.756-3.898 6.756-3.897z"/><path stroke-miterlimit="10" stroke-width=".386" d="m13.88.386 6.756 3.897L13.88 8.18 7.124 4.283 13.88.386zM13.88 15.976l6.756-3.897v7.795l-6.756 3.897v-7.795z"/><path stroke-miterlimit="10" stroke-width=".386" d="m20.635 12.078 6.738-3.897v7.795l-6.738 3.897v-7.795zM13.88 23.77l6.756-3.897v7.795l-6.756 3.897V23.77z"/><path stroke-miterlimit="10" stroke-width=".386" d="m20.635 19.873 6.738-3.897v7.795l-6.738 3.897v-7.795z"/></symbol><symbol id="icon-feature-icon3" viewBox="0 0 32 32"><path stroke-miterlimit="10" stroke-width=".444" d="M16 31.556c4.296 0 7.778-3.482 7.778-7.778S20.296 16 16 16c-4.296 0-7.778 3.482-7.778 7.778s3.482 7.778 7.778 7.778zM16 16c4.296 0 7.778-3.482 7.778-7.778S20.296.444 16 .444c-4.296 0-7.778 3.482-7.778 7.778S11.704 16 16 16z"/><path stroke-miterlimit="10" stroke-width=".444" d="M23.778 23.778c4.296 0 7.778-3.482 7.778-7.778s-3.482-7.778-7.778-7.778C19.482 8.222 16 11.704 16 16s3.482 7.778 7.778 7.778zM8.222 23.778C12.518 23.778 16 20.296 16 16s-3.482-7.778-7.778-7.778C3.926 8.222.444 11.704.444 16s3.482 7.778 7.778 7.778z"/></symbol><symbol id="icon-feature-icon4" viewBox="0 0 32 32"><path stroke-miterlimit="10" stroke-width=".444" d="M19.889 8.222V.444h7.778v7.778a3.895 3.895 0 0 0 3.889 3.889v7.778c-6.447 0-11.667-5.237-11.667-11.667z"/><path stroke-miterlimit="10" stroke-width=".444" d="M8.222 12.111H.444V4.333h7.778A3.895 3.895 0 0 0 12.111.444h7.778c0 6.43-5.22 11.667-11.667 11.667zM12.111 23.778v7.778H4.333v-7.778a3.895 3.895 0 0 0-3.889-3.889v-7.778c6.447 0 11.667 5.22 11.667 11.667zM23.778 19.889h7.778v7.778h-7.778a3.895 3.895 0 0 0-3.889 3.889h-7.778c0-6.447 5.22-11.667 11.667-11.667z"/></symbol><symbol id="icon-arrow-subscribe" viewBox="0 0 32 32"><path d="M6.813 25.187a1.065 1.065 0 0 1-.095-1.399l.095-.109L21.898 8.594a1.067 1.067 0 0 1 1.604 1.399l-.096.109L8.321 25.187a1.067 1.067 0 0 1-1.508 0z"/><path d="M10.511 10.44a1.067 1.067 0 0 1-.162-2.121l.158-.012 12.142-.026c.537-.001.982.395 1.058.911l.011.158-.025 12.143a1.067 1.067 0 0 1-2.122.154l-.011-.158.022-11.072-11.07.024z"/></symbol><symbol id="icon-decor1" viewBox="0 0 32 32"><path d="m16 16 8-8 8 8H16zM16 16l8 8-8 8V16z"/><path d="m8 24 8-8 8 8H8z"/><path d="m16 16-8 8-8-8h16zM16 16 8 8l8-8v16z"/><path d="m24 8-8 8-8-8h16z"/></symbol><symbol id="icon-decor2" viewBox="0 0 32 32"><path d="M21.333 0H10.666c0 5.884-4.782 10.667-10.667 10.667v10.667c11.787 0 21.333-9.547 21.333-21.333z"/><path d="M32 10.667v10.667c-5.884 0-10.667 4.782-10.667 10.667H10.666c0-11.787 9.547-21.333 21.333-21.333z"/></symbol><symbol id="icon-hero-arrows" viewBox="0 0 32 32"><path d="M.445 1.676a1.52 1.52 0 0 1 1.98-.147l.171.147L15.711 14.79 28.826 1.676a1.52 1.52 0 0 1 1.98-.147l.171.147c.54.54.589 1.384.147 1.98l-.147.171-14.19 14.19a1.52 1.52 0 0 1-1.98.147l-.171-.147L.446 3.827a1.52 1.52 0 0 1 0-2.15z"/><path d="M.445 13.984a1.52 1.52 0 0 1 1.98-.147l.171.147 13.115 13.114 13.115-13.114a1.52 1.52 0 0 1 1.98-.147l.171.147c.54.54.589 1.384.147 1.98l-.147.17-14.19 14.19a1.52 1.52 0 0 1-1.98.147l-.171-.147-14.19-14.19a1.52 1.52 0 0 1 0-2.15z"/></symbol><symbol id="icon-instagram" viewBox="0 0 32 32"><path fill="none" stroke="#000" style="stroke:var(--color1, #000)" stroke-width="1.067" d="M31.467 16c0 8.542-6.925 15.467-15.467 15.467S.533 24.542.533 16C.533 7.458 7.458.533 16 .533S31.467 7.458 31.467 16z"/><path d="M16 14.32a1.68 1.68 0 1 0 0 3.359 1.68 1.68 0 0 0 0-3.359zm0-1.12a2.8 2.8 0 1 1 0 5.6 2.8 2.8 0 0 1 0-5.6zm3.64-.14a.7.7 0 1 1-1.4 0 .7.7 0 0 1 1.4 0zM16 11.52c-1.386 0-1.612.004-2.256.032-.439.021-.734.08-1.007.186a1.622 1.622 0 0 0-.605.394c-.175.169-.31.376-.394.605-.106.274-.165.568-.185 1.007-.029.618-.032.834-.032 2.256 0 1.385.004 1.612.032 2.256.021.439.08.734.185 1.006.095.244.207.419.393.605.189.188.364.301.605.394.277.107.571.166 1.008.186.618.029.834.033 2.256.033 1.385 0 1.612-.004 2.256-.033.438-.021.733-.079 1.006-.185.242-.095.419-.207.605-.393.189-.189.301-.364.394-.605.106-.276.166-.571.186-1.008.029-.618.033-.834.033-2.256 0-1.386-.004-1.612-.033-2.256-.021-.438-.079-.734-.186-1.007a1.63 1.63 0 0 0-.394-.605 1.615 1.615 0 0 0-.605-.394c-.274-.106-.569-.165-1.007-.185-.618-.029-.834-.032-2.256-.032zm0-1.12c1.521 0 1.711.006 2.308.034s1.002.122 1.36.26c.37.142.681.335.992.646.285.28.505.619.646.992.138.357.232.763.26 1.36.026.597.034.787.034 2.308s-.006 1.711-.034 2.308c-.028.596-.122 1.002-.26 1.36-.14.374-.361.713-.646.992-.28.285-.619.505-.992.646-.357.138-.763.232-1.36.26-.597.026-.787.034-2.308.034s-1.711-.006-2.308-.034c-.596-.028-1.002-.122-1.36-.26a2.727 2.727 0 0 1-.992-.646 2.757 2.757 0 0 1-.646-.992c-.139-.357-.232-.763-.26-1.36-.026-.597-.034-.787-.034-2.308s.006-1.711.034-2.308c.028-.597.122-1.002.26-1.36.14-.374.361-.713.646-.992.28-.285.619-.505.992-.646.357-.139.763-.232 1.36-.26.597-.026.787-.034 2.308-.034z"/></symbol><symbol id="icon-linkedin" viewBox="0 0 32 32"><path fill="none" stroke="#000" style="stroke:var(--color1, #000)" stroke-width="1.067" d="M31.467 16c0 8.542-6.925 15.467-15.467 15.467S.533 24.542.533 16C.533 7.458 7.458.533 16 .533S31.467 7.458 31.467 16z"/><path d="M16.251 13.995c.545-.557 1.255-.921 2.08-.921a3.267 3.267 0 0 1 3.268 3.268v4.457H20.41v-4.457a2.08 2.08 0 1 0-4.16 0v4.457h-1.189V13.37h1.189v.624zm-4.16-1.812a.892.892 0 1 1 0-1.783.892.892 0 0 1 0 1.783zm-.594 1.188h1.189V20.8h-1.189v-7.429z"/></symbol><symbol id="icon-twitter" viewBox="0 0 32 32"><path fill="none" stroke="#000" style="stroke:var(--color1, #000)" stroke-width=".8" d="M31.6 16c0 8.616-6.984 15.6-15.6 15.6S.4 24.616.4 16 7.384.4 16 .4 31.6 7.384 31.6 16z"/><path d="M18.287 11.65a1.812 1.812 0 0 0-1.812 1.779l-.018.984a.37.37 0 0 1-.131.278.379.379 0 0 1-.294.087l-.975-.132c-1.283-.175-2.513-.766-3.692-1.749-.374 2.068.356 3.5 2.114 4.606l1.091.686a.37.37 0 0 1 .175.304.374.374 0 0 1-.154.316l-.995.727c.592.037 1.153.011 1.619-.082 2.948-.589 4.907-2.806 4.907-6.465 0-.299-.632-1.338-1.837-1.338zm-3.061 1.756a3.066 3.066 0 0 1 1.923-2.787 3.059 3.059 0 0 1 3.315.69c.444-.003.822.109 1.667-.403-.209 1.025-.312 1.469-.758 2.081 0 4.774-2.934 7.096-5.912 7.69-2.042.407-5.01-.262-5.861-1.15.434-.034 2.195-.223 3.214-.968-.862-.568-4.291-2.586-2.037-8.011 1.058 1.235 2.13 2.076 3.217 2.522.723.297.901.29 1.233.336l-.001-.001z"/></symbol><symbol id="icon-arrow-btn" viewBox="0 0 32 32"><path d="m19.414 27.414 10-10a2 2 0 0 0 0-2.828l-10-10a2 2 0 1 0-2.828 2.828L23.172 14H4a2 2 0 1 0 0 4h19.172l-6.586 6.586c-.39.39-.586.902-.586 1.414s.195 1.024.586 1.414a2 2 0 0 0 2.828 0z"/></symbol></defs></svg>