<svg width="30" height="30" viewBox="0 0 30 30" fill="none" xmlns="http://www.w3.org/2000/svg">
<circle cx="15" cy="15" r="14.5" stroke="black"/>
<path d="M15.2357 13.1207C15.7466 12.5987 16.4118 12.2571 17.1857 12.2571C17.9984 12.2571 18.7778 12.58 19.3525 13.1547C19.9272 13.7293 20.25 14.5087 20.25 15.3214V19.5H19.1357V15.3214C19.1357 14.8043 18.9303 14.3083 18.5646 13.9426C18.1989 13.5769 17.7029 13.3714 17.1857 13.3714C16.6685 13.3714 16.1726 13.5769 15.8069 13.9426C15.4412 14.3083 15.2357 14.8043 15.2357 15.3214V19.5H14.1214V12.5357H15.2357V13.1207ZM11.3357 11.4214C11.1141 11.4214 10.9015 11.3334 10.7448 11.1767C10.588 11.0199 10.5 10.8074 10.5 10.5857C10.5 10.3641 10.588 10.1515 10.7448 9.99478C10.9015 9.83805 11.1141 9.75 11.3357 9.75C11.5574 9.75 11.7699 9.83805 11.9267 9.99478C12.0834 10.1515 12.1714 10.3641 12.1714 10.5857C12.1714 10.8074 12.0834 11.0199 11.9267 11.1767C11.7699 11.3334 11.5574 11.4214 11.3357 11.4214ZM10.7786 12.5357H11.8929V19.5H10.7786V12.5357Z" fill="black"/>
</svg>
